<svg width="102" height="42" viewBox="0 0 102 42" fill="none" xmlns="http://www.w3.org/2000/svg">
<path d="M102 0H60.1318V42H102V0Z" fill="#F12A37"/>
<path d="M87.7487 14.6416H85.6565V27.3083H87.7487V14.6416Z" fill="white"/>
<path d="M94.6652 23.086H90.1362V14.6416H92.2284V20.9873H94.6652V14.6416H96.7574V27.333H94.6652V23.086Z" fill="white"/>
<path d="M83.2196 14.6416H81.1274V27.3083H83.2196V14.6416Z" fill="white"/>
<path d="M65.4238 29.3085V12.6665H72.7588C73.5218 12.6665 74.2356 12.8147 74.8756 13.1356C75.5155 13.4566 76.0816 13.8764 76.5493 14.3949C77.017 14.9381 77.3862 15.5307 77.6569 16.1727C77.9031 16.8393 78.0508 17.506 78.0508 18.1974C78.0508 18.8887 77.9277 19.5801 77.6816 20.2221C77.4354 20.864 77.0908 21.4319 76.6478 21.9258C76.2047 22.4196 75.6632 22.79 75.0479 23.0616L78.8384 29.3085H75.1217L71.8727 23.7282H68.6482V29.3085H65.4238ZM68.6482 20.9875H72.6849C73.0788 20.9875 73.448 20.864 73.7679 20.6171C74.0879 20.3702 74.3341 20.0492 74.5064 19.6542C74.7033 19.2591 74.7771 18.79 74.7771 18.2961C74.7771 17.7529 74.6787 17.3085 74.4571 16.9134C74.2356 16.5184 73.9649 16.1974 73.6203 15.9751C73.2757 15.7529 72.9311 15.6295 72.5372 15.6295H68.6236V21.0122L68.6482 20.9875Z" fill="white"/>
<path d="M56.9567 15.3086V17.8271H54.8399V21.8271H51.8862V15.3086H56.9567Z" fill="#6D7273"/>
<path d="M49.0556 19.6296L46.9388 21.6543L43.1236 17.8519L39.3331 21.6543L37.1917 19.6296L43.1236 14L49.0556 19.6296Z" fill="#6D7273"/>
<path d="M54.9135 25.4814V27.9999H37.9299V22.9629H40.859V25.4814H54.9135Z" fill="#6D7273"/>
<path d="M16.9098 22.9629V25.4814H10.0179V28.2221H6.86728V25.4814H0V22.9629H16.9098Z" fill="#6D7273"/>
<path d="M13.9561 14V15.3086H2.95367V14H0V21.6543H16.9098V14H13.9561ZM13.9561 19.1358H2.95367V17.8272H13.9561V19.1358Z" fill="#6D7273"/>
<path d="M35.887 17.8271V15.3086H18.9773V21.6543H25.82V22.9629H18.9773V25.4814H23.0878C22.8171 26.0987 22.694 26.7407 22.694 27.4074C22.694 30.0246 24.8354 32.1481 27.4445 32.1481C30.0536 32.1481 32.1457 30.0246 32.1457 27.4074C32.1457 26.7407 32.0227 26.0987 31.7519 25.4814H35.9117V22.9629H29.1428V21.6543H35.9117V19.1358H21.6356V17.8271H35.9117H35.887ZM27.3953 25.2592C28.5767 25.2592 29.5367 26.2222 29.5367 27.4074C29.5367 28.5925 28.5767 29.5555 27.3953 29.5555C26.2138 29.5555 25.2538 28.5925 25.2538 27.4074C25.2538 26.2222 26.2138 25.2592 27.3953 25.2592Z" fill="#6D7273"/>
</svg>
